<svg xmlns:xlink="http://www.w3.org/1999/xlink" xmlns="http://www.w3.org/2000/svg" class="css-ze2te4 css-qd6ojx" viewBox="0 0 88.8833374142187 70.7337362476115" width="110"  height="88" ><g transform="translate(-4.881650025468999, -13.956353592297093) scale(0.19266884057050562)" class="css-17ivn46" fill="#000000"><g xmlns="http://www.w3.org/2000/svg"><g><path d="M112.044,362.308c-1.167,0-2.354-0.165-3.531-0.511c-52.86-15.539-83.176-41.636-83.176-71.6    c0-6.904,5.597-12.5,12.5-12.5s12.5,5.596,12.5,12.5c0,17.277,25.603,35.967,65.227,47.615c6.624,1.947,10.414,8.895,8.467,15.518    C122.43,358.776,117.447,362.308,112.044,362.308z"></path><path d="M212.72,375.588c-18.654,0-37.054-1.185-54.689-3.522c-6.844-0.907-11.657-7.19-10.75-14.034    c0.907-6.844,7.188-11.657,14.034-10.75c16.55,2.193,33.846,3.305,51.405,3.305c45.101,0,87.31-7.24,118.853-20.387    c27.258-11.361,43.531-26.316,43.531-40.004c0-19.871-32.648-40.68-81.241-51.78c-6.73-1.537-10.94-8.24-9.403-14.97    c1.537-6.731,8.25-10.939,14.97-9.402c63.039,14.399,100.675,42.867,100.675,76.152c0,24.843-20.923,47.245-58.913,63.08    C306.671,367.665,261.046,375.588,212.72,375.588z"></path><path d="M200.392,439.563c-6.903,0-12.5-5.596-12.5-12.5s5.597-12.5,12.5-12.5c8.292,0,16.657-0.159,24.863-0.473    c6.914-0.256,12.705,5.115,12.969,12.013s-5.114,12.705-12.013,12.969C217.688,439.398,209.001,439.563,200.392,439.563z"></path><path d="M264.017,436.465c-6.349,0-11.784-4.816-12.424-11.267c-0.682-6.87,4.335-12.992,11.205-13.673    c60.891-6.042,114.787-20.853,151.763-41.704c6.014-3.393,13.637-1.265,17.027,4.748c3.392,6.013,1.266,13.637-4.748,17.028    c-39.928,22.517-97.31,38.429-161.573,44.806C264.846,436.444,264.429,436.465,264.017,436.465z"></path><path d="M459.729,362.104c-2.771,0-5.561-0.917-7.879-2.802c-5.355-4.356-6.167-12.229-1.812-17.585    c7.713-9.484,11.623-19.161,11.623-28.762c0-20.479-18.173-41.467-51.172-59.099c-6.089-3.253-8.388-10.827-5.134-16.916    c3.253-6.089,10.826-8.388,16.915-5.134c42.125,22.508,64.391,50.569,64.391,81.149c0,15.494-5.796,30.478-17.227,44.535    C466.965,360.528,463.362,362.104,459.729,362.104z"></path><path d="M142.873,266.954c-2.814,0-5.645-0.945-7.979-2.884c-19.007-15.786-22.997-31.698-22.997-42.267    c0-24.843,20.922-47.245,58.914-63.08c34.52-14.388,80.145-22.311,128.47-22.311c48.325,0,93.95,7.924,128.47,22.311    c37.99,15.834,58.913,38.237,58.913,63.08c0,6.904-5.597,12.5-12.5,12.5s-12.5-5.596-12.5-12.5    c0-13.688-16.273-28.643-43.531-40.004c-31.542-13.147-73.751-20.387-118.852-20.387s-87.31,7.24-118.853,20.387    c-27.258,11.361-43.531,26.316-43.531,40.004c0,9.449,7.597,17.742,13.97,23.035c5.311,4.411,6.041,12.292,1.63,17.602    C150.024,265.417,146.461,266.954,142.873,266.954z"></path><path d="M215.366,298.271c-0.922,0-1.857-0.103-2.794-0.317c-11.997-2.74-23.31-6.063-33.624-9.876    c-6.475-2.394-9.784-9.584-7.39-16.059c2.394-6.475,9.583-9.784,16.059-7.39c9.305,3.44,19.574,6.452,30.521,8.953    c6.73,1.537,10.94,8.24,9.403,14.97C226.217,294.345,221.066,298.271,215.366,298.271z"></path><path d="M248.013,100.531c-6.349,0-11.785-4.817-12.424-11.268c-0.681-6.87,4.336-12.991,11.206-13.672    c21.115-2.093,42.92-3.154,64.812-3.154c6.903,0,12.5,5.596,12.5,12.5s-5.597,12.5-12.5,12.5c-21.071,0-42.048,1.02-62.346,3.032    C248.842,100.511,248.426,100.531,248.013,100.531z"></path><path d="M95.608,281.671c-1.988,0-4.004-0.475-5.88-1.478c-53.219-28.437-64.39-59.825-64.39-81.149    c0-25.796,16.246-50.269,46.981-70.774c27.661-18.454,66.469-33.362,112.227-43.114c6.754-1.438,13.392,2.868,14.831,9.62    s-2.868,13.392-9.62,14.831c-42.696,9.098-78.507,22.743-103.563,39.459c-16.357,10.913-35.855,28.441-35.855,49.977    c0,20.478,18.173,41.467,51.172,59.099c6.089,3.254,8.387,10.827,5.134,16.916C104.393,279.272,100.073,281.671,95.608,281.671z"></path></g><ellipse cx="256" cy="256" rx="17.638" ry="12.784"></ellipse></g></g></svg>